# xmcd
#
# Track frame offsets:
#	150
#	18812
#	36905
#	52968
#	71702
#	90990
#	110031
#	136772
#	156184
#	175781
#	199407
#	218067
#	238258
#
# Disc length: 3390 seconds
#
# Revision: 0
# Processed by: cddbd v1.5.2PL0 Copyright (c) Steve Scherf et al.
# Submitted via: EasyCDDAExtractor 16.0.1.1
#
DISCID=b00d3c0d
DTITLE=Big Jack Johnson and Kim Wilson and Pinetop Perkins - Memphis Barbecue Sess
DTITLE=ions
DYEAR=2002
DGENRE=Blues
TTITLE0=Oh Baby
TTITLE1=Humming Blues
TTITLE2=Don't Care Nothing
TTITLE3=Smokestack Lighting
TTITLE4=I'm Going Out Walking
TTITLE5=My Babe
TTITLE6=Blue Bird
TTITLE7=Lonesome Road
TTITLE8=Get Along Little Cindy
TTITLE9=Humming Bird
TTITLE10=Big Boss Man
TTITLE11=Things I Used to Do
TTITLE12=Dust My Broom
EXTD=
EXTT0=
EXTT1=
EXTT2=
EXTT3=
EXTT4=
EXTT5=
EXTT6=
EXTT7=
EXTT8=
EXTT9=
EXTT10=
EXTT11=
EXTT12=
PLAYORDER=
